<svg width="182" height="18" viewBox="0 0 182 18" fill="none" xmlns="http://www.w3.org/2000/svg">
<path d="M45.7557 18H48.84C49.4177 18 49.8844 17.546 49.8844 16.9839V9.44611C49.8844 8.97936 49.496 8.59834 49.013 8.59834H47.3191C45.8764 8.59834 44.708 9.73505 44.708 11.1385V16.9839C44.7113 17.546 45.178 18 45.7557 18Z" fill="#3B0C3E"/>
<path d="M46.3497 5.95661L44.4306 4.08961C43.9083 3.58158 43.9083 2.75287 44.4306 2.24802L46.3497 0.38102C46.8719 -0.127007 47.7238 -0.127007 48.2427 0.38102L50.1619 2.24802C50.6841 2.75604 50.6841 3.58476 50.1619 4.08961L48.2427 5.95661C47.7238 6.46146 46.8719 6.46146 46.3497 5.95661Z" fill="#3B0C3E"/>
<path d="M36.6594 0H31.6004C31.0913 0 30.742 0.495325 30.9216 0.955724L32.5926 5.25172C32.8048 5.8804 33.4119 6.33763 34.1299 6.33763C34.8218 6.33763 35.4126 5.91533 35.6443 5.3184L37.3415 0.955724C37.5178 0.495325 37.1653 0 36.6594 0Z" fill="#3B0C3E"/>
<path d="M30.7192 18C30.7192 18 32.4425 18 31.8485 16.3235L26.659 1.67649C26.659 1.67649 26.065 0 24.3384 0H22.2691C22.2691 0 20.5458 0 21.1398 1.67649L26.3293 16.3235C26.3293 16.3235 26.9234 18 28.6499 18H30.7192Z" fill="#3B0C3E"/>
<path d="M6.99766 0C6.99766 0 5.27435 0 5.86837 1.67649L11.0579 16.3235C11.0579 16.3235 11.6519 18 13.3785 18H15.4477C15.4477 18 17.171 18 16.577 16.3235L11.3875 1.67649C11.3875 1.67649 10.7935 0 9.06693 0H6.99766Z" fill="#3B0C3E"/>
<path d="M3.25731 18C5.05568 18 6.51461 16.5807 6.51461 14.8312C6.51461 13.0817 5.05568 11.6624 3.25731 11.6624C1.45893 11.6624 0 13.0848 0 14.8344C0 16.5839 1.45893 18 3.25731 18Z" fill="#3B0C3E"/>
<path d="M170.111 17.7587H181.211C181.293 17.7587 181.335 17.7174 181.335 17.638V16.387C181.335 16.3076 181.293 16.2664 181.211 16.2664H171.896C171.811 16.2664 171.772 16.2251 171.772 16.1457V0.36514C171.772 0.285761 171.73 0.244484 171.648 0.244484H170.111C170.026 0.244484 169.987 0.285761 169.987 0.36514V17.638C169.987 17.7174 170.026 17.7587 170.111 17.7587Z" fill="#3B0C3E"/>
<path d="M134.793 15.4757C135.469 16.2695 136.311 16.8887 137.329 17.3332C138.344 17.7777 139.477 18 140.727 18C141.624 18 142.47 17.8666 143.263 17.5999C144.053 17.3332 144.712 16.9998 145.234 16.6029C145.76 16.206 146.213 15.7742 146.595 15.3043C146.977 14.8344 147.258 14.3962 147.437 13.9929C147.617 13.5897 147.715 13.2436 147.731 12.961C147.731 12.8721 147.688 12.8277 147.607 12.8277H146.096C146.004 12.8277 145.942 12.8721 145.91 12.961C145.825 13.2055 145.707 13.4627 145.554 13.7389C145.4 14.0152 145.172 14.3232 144.875 14.6629C144.575 15.0026 144.242 15.3075 143.876 15.5742C143.511 15.8409 143.051 16.0663 142.496 16.2473C141.941 16.4283 141.353 16.5204 140.73 16.5204C138.749 16.5204 137.225 15.8631 136.161 14.5454C135.097 13.2309 134.561 11.3798 134.561 9.00159C134.561 6.62339 135.093 4.77545 136.161 3.4641C137.225 2.15276 138.749 1.4955 140.73 1.4955C141.353 1.4955 141.944 1.58758 142.496 1.76857C143.051 1.94955 143.507 2.17499 143.876 2.43535C144.242 2.69889 144.575 3.00053 144.875 3.34027C145.175 3.68001 145.4 3.98801 145.554 4.26424C145.707 4.54048 145.828 4.79767 145.91 5.04216C145.942 5.13106 146.004 5.17552 146.096 5.17552H147.607C147.688 5.17552 147.731 5.13106 147.731 5.04216C147.715 4.75957 147.617 4.41348 147.437 4.01023C147.258 3.60699 146.977 3.16881 146.595 2.69889C146.213 2.22896 145.76 1.79714 145.234 1.40025C144.709 1.00335 144.053 0.669959 143.263 0.403246C142.466 0.133357 141.621 0 140.723 0C139.473 0 138.344 0.222261 137.326 0.666784C136.311 1.11131 135.465 1.73046 134.79 2.52425C134.114 3.31805 133.598 4.26424 133.236 5.36603C132.874 6.46781 132.694 7.67755 132.694 8.99841C132.694 10.3193 132.874 11.529 133.236 12.6308C133.598 13.7326 134.117 14.682 134.793 15.4757Z" fill="#3B0C3E"/>
<path d="M126.004 17.7587H127.541C127.622 17.7587 127.665 17.7174 127.665 17.638V0.36514C127.665 0.285761 127.622 0.244484 127.541 0.244484H126.004C125.919 0.244484 125.88 0.285761 125.88 0.36514V17.638C125.88 17.7174 125.919 17.7587 126.004 17.7587Z" fill="#3B0C3E"/>
<path d="M89.5498 17.7587H101.561C101.652 17.7587 101.698 17.7174 101.698 17.638V16.387C101.698 16.3076 101.652 16.2664 101.561 16.2664H91.3351C91.2503 16.2664 91.2111 16.2251 91.2111 16.1457V9.62074C91.2111 9.54136 91.2535 9.50008 91.3351 9.50008H100.461C100.552 9.50008 100.598 9.45881 100.598 9.37943V8.12841C100.598 8.04904 100.552 8.00776 100.461 8.00776H91.3351C91.2503 8.00776 91.2111 7.96648 91.2111 7.8871V1.85747C91.2111 1.77809 91.2535 1.73681 91.3351 1.73681H101.561C101.652 1.73681 101.698 1.69553 101.698 1.61615V0.36514C101.698 0.285761 101.652 0.244484 101.561 0.244484H89.5498C89.4649 0.244484 89.4258 0.285761 89.4258 0.36514V17.638C89.4225 17.7174 89.4649 17.7587 89.5498 17.7587Z" fill="#3B0C3E"/>
<path d="M67.5124 17.7587H69.0497C69.1312 17.7587 69.1737 17.7174 69.1737 17.638V1.85747C69.1737 1.81619 69.1933 1.78444 69.2292 1.75904C69.2651 1.73364 69.3075 1.73046 69.3467 1.74634C69.3891 1.76221 69.4185 1.80031 69.4348 1.85429L74.1869 17.6349C74.213 17.7142 74.262 17.7555 74.3371 17.7555H76.9971C77.0722 17.7555 77.1211 17.7142 77.1472 17.6317L81.8994 1.85112C81.9157 1.79714 81.9483 1.75904 81.9908 1.74316C82.0332 1.72729 82.0756 1.73046 82.1148 1.75586C82.1539 1.78126 82.1735 1.81301 82.1735 1.85429V17.6317C82.1735 17.7142 82.216 17.7523 82.2976 17.7523H83.8348C83.9164 17.7523 83.9588 17.7111 83.9588 17.6317V0.36514C83.9588 0.285761 83.9164 0.244484 83.8348 0.244484H80.6885C80.5971 0.244484 80.5383 0.285761 80.5122 0.36514L75.8058 16.1679C75.7731 16.2251 75.7177 16.2537 75.6393 16.2537C75.561 16.2537 75.5055 16.2314 75.4729 16.187L70.7762 0.384191C70.7501 0.288936 70.6914 0.244484 70.5934 0.244484H67.5091C67.4275 0.244484 67.3851 0.285761 67.3851 0.36514V17.638C67.3884 17.7174 67.4308 17.7587 67.5124 17.7587Z" fill="#3B0C3E"/>
<path d="M120.501 5.56924C120.168 4.48968 119.678 3.54984 119.035 2.75604C118.389 1.96225 117.557 1.34627 116.538 0.9081C115.52 0.469927 114.355 0.247666 113.049 0.241316H106.558C106.473 0.241316 106.434 0.282593 106.434 0.361972V17.6349C106.434 17.7174 106.476 17.7555 106.558 17.7555H113.049C115.664 17.7555 117.642 16.9998 118.986 15.4853C120.331 13.9707 121.003 11.8656 121.003 9.16987C121 7.85218 120.83 6.6488 120.501 5.56924ZM117.501 14.4533C116.454 15.6599 114.965 16.2632 113.043 16.2632H108.336C108.252 16.2632 108.212 16.2219 108.212 16.1425V1.85747C108.212 1.77809 108.255 1.73682 108.336 1.73682H113.043C114.933 1.73682 116.411 2.40043 117.475 3.72764C118.539 5.05486 119.074 6.87106 119.074 9.16987C119.074 11.4877 118.552 13.2468 117.501 14.4533Z" fill="#3B0C3E"/>
<path d="M165.659 17.6063L159.768 0.336564C159.742 0.273061 159.69 0.244484 159.615 0.244484H156.981C156.902 0.244484 156.853 0.285761 156.827 0.368315L150.942 17.638C150.916 17.7206 150.949 17.7587 151.04 17.7587H152.672C152.773 17.7587 152.836 17.7174 152.858 17.6349L154.125 13.8183C154.151 13.7389 154.21 13.7008 154.301 13.7008H162.196C162.288 13.7008 162.346 13.7389 162.372 13.8151L163.645 17.638C163.671 17.7174 163.733 17.7587 163.828 17.7587H165.551C165.649 17.7587 165.682 17.7079 165.659 17.6063ZM161.72 12.2085H154.807C154.715 12.2085 154.683 12.164 154.706 12.0751L158.11 1.83207C158.136 1.77809 158.182 1.74951 158.247 1.74951C158.312 1.74951 158.358 1.77809 158.384 1.83524L161.798 12.0815C161.821 12.164 161.795 12.2085 161.72 12.2085Z" fill="#3B0C3E"/>
<path d="M170.111 17.7587H181.211C181.293 17.7587 181.335 17.7174 181.335 17.638V16.387C181.335 16.3076 181.293 16.2664 181.211 16.2664H171.896C171.811 16.2664 171.772 16.2251 171.772 16.1457V0.36514C171.772 0.285761 171.73 0.244484 171.648 0.244484H170.111C170.026 0.244484 169.987 0.285761 169.987 0.36514V17.638C169.987 17.7174 170.026 17.7587 170.111 17.7587Z" fill="#3B0C3E"/>
<path d="M134.793 15.4757C135.469 16.2695 136.311 16.8887 137.329 17.3332C138.344 17.7777 139.477 18 140.727 18C141.624 18 142.47 17.8666 143.263 17.5999C144.053 17.3332 144.712 16.9998 145.234 16.6029C145.76 16.206 146.213 15.7742 146.595 15.3043C146.977 14.8344 147.258 14.3962 147.437 13.9929C147.617 13.5897 147.715 13.2436 147.731 12.961C147.731 12.8721 147.688 12.8277 147.607 12.8277H146.096C146.004 12.8277 145.942 12.8721 145.91 12.961C145.825 13.2055 145.707 13.4627 145.554 13.7389C145.4 14.0152 145.172 14.3232 144.875 14.6629C144.575 15.0026 144.242 15.3075 143.876 15.5742C143.511 15.8409 143.051 16.0663 142.496 16.2473C141.941 16.4283 141.353 16.5204 140.73 16.5204C138.749 16.5204 137.225 15.8631 136.161 14.5454C135.097 13.2309 134.561 11.3798 134.561 9.00159C134.561 6.62339 135.093 4.77545 136.161 3.4641C137.225 2.15276 138.749 1.4955 140.73 1.4955C141.353 1.4955 141.944 1.58758 142.496 1.76857C143.051 1.94955 143.507 2.17499 143.876 2.43535C144.242 2.69889 144.575 3.00053 144.875 3.34027C145.175 3.68001 145.4 3.98801 145.554 4.26424C145.707 4.54048 145.828 4.79767 145.91 5.04216C145.942 5.13106 146.004 5.17552 146.096 5.17552H147.607C147.688 5.17552 147.731 5.13106 147.731 5.04216C147.715 4.75957 147.617 4.41348 147.437 4.01023C147.258 3.60699 146.977 3.16881 146.595 2.69889C146.213 2.22896 145.76 1.79714 145.234 1.40025C144.709 1.00335 144.053 0.669959 143.263 0.403246C142.466 0.133357 141.621 0 140.723 0C139.473 0 138.344 0.222261 137.326 0.666784C136.311 1.11131 135.465 1.73046 134.79 2.52425C134.114 3.31805 133.598 4.26424 133.236 5.36603C132.874 6.46781 132.694 7.67755 132.694 8.99841C132.694 10.3193 132.874 11.529 133.236 12.6308C133.598 13.7326 134.117 14.682 134.793 15.4757Z" fill="#3B0C3E"/>
<path d="M126.004 17.7587H127.541C127.622 17.7587 127.665 17.7174 127.665 17.638V0.36514C127.665 0.285761 127.622 0.244484 127.541 0.244484H126.004C125.919 0.244484 125.88 0.285761 125.88 0.36514V17.638C125.88 17.7174 125.919 17.7587 126.004 17.7587Z" fill="#3B0C3E"/>
<path d="M89.5498 17.7587H101.561C101.652 17.7587 101.698 17.7174 101.698 17.638V16.387C101.698 16.3076 101.652 16.2664 101.561 16.2664H91.3351C91.2503 16.2664 91.2111 16.2251 91.2111 16.1457V9.62074C91.2111 9.54136 91.2535 9.50008 91.3351 9.50008H100.461C100.552 9.50008 100.598 9.45881 100.598 9.37943V8.12841C100.598 8.04904 100.552 8.00776 100.461 8.00776H91.3351C91.2503 8.00776 91.2111 7.96648 91.2111 7.8871V1.85747C91.2111 1.77809 91.2535 1.73681 91.3351 1.73681H101.561C101.652 1.73681 101.698 1.69553 101.698 1.61615V0.36514C101.698 0.285761 101.652 0.244484 101.561 0.244484H89.5498C89.4649 0.244484 89.4258 0.285761 89.4258 0.36514V17.638C89.4225 17.7174 89.4649 17.7587 89.5498 17.7587Z" fill="#3B0C3E"/>
<path d="M67.5124 17.7587H69.0497C69.1312 17.7587 69.1737 17.7174 69.1737 17.638V1.85747C69.1737 1.81619 69.1933 1.78444 69.2292 1.75904C69.2651 1.73364 69.3075 1.73046 69.3467 1.74634C69.3891 1.76221 69.4185 1.80031 69.4348 1.85429L74.1869 17.6349C74.213 17.7142 74.262 17.7555 74.3371 17.7555H76.9971C77.0722 17.7555 77.1211 17.7142 77.1472 17.6317L81.8994 1.85112C81.9157 1.79714 81.9483 1.75904 81.9908 1.74316C82.0332 1.72729 82.0756 1.73046 82.1148 1.75586C82.1539 1.78126 82.1735 1.81301 82.1735 1.85429V17.6317C82.1735 17.7142 82.216 17.7523 82.2976 17.7523H83.8348C83.9164 17.7523 83.9588 17.7111 83.9588 17.6317V0.36514C83.9588 0.285761 83.9164 0.244484 83.8348 0.244484H80.6885C80.5971 0.244484 80.5383 0.285761 80.5122 0.36514L75.8058 16.1679C75.7731 16.2251 75.7177 16.2537 75.6393 16.2537C75.561 16.2537 75.5055 16.2314 75.4729 16.187L70.7762 0.384191C70.7501 0.288936 70.6914 0.244484 70.5934 0.244484H67.5091C67.4275 0.244484 67.3851 0.285761 67.3851 0.36514V17.638C67.3884 17.7174 67.4308 17.7587 67.5124 17.7587Z" fill="#3B0C3E"/>
<path d="M120.501 5.56924C120.168 4.48968 119.678 3.54984 119.035 2.75604C118.389 1.96225 117.557 1.34627 116.538 0.9081C115.52 0.469927 114.355 0.247666 113.049 0.241316H106.558C106.473 0.241316 106.434 0.282593 106.434 0.361972V17.6349C106.434 17.7174 106.476 17.7555 106.558 17.7555H113.049C115.664 17.7555 117.642 16.9998 118.986 15.4853C120.331 13.9707 121.003 11.8656 121.003 9.16987C121 7.85218 120.83 6.6488 120.501 5.56924ZM117.501 14.4533C116.454 15.6599 114.965 16.2632 113.043 16.2632H108.336C108.252 16.2632 108.212 16.2219 108.212 16.1425V1.85747C108.212 1.77809 108.255 1.73682 108.336 1.73682H113.043C114.933 1.73682 116.411 2.40043 117.475 3.72764C118.539 5.05486 119.074 6.87106 119.074 9.16987C119.074 11.4877 118.552 13.2468 117.501 14.4533Z" fill="#3B0C3E"/>
<path d="M165.659 17.6063L159.768 0.336564C159.742 0.273061 159.69 0.244484 159.615 0.244484H156.981C156.902 0.244484 156.853 0.285761 156.827 0.368315L150.942 17.638C150.916 17.7206 150.949 17.7587 151.04 17.7587H152.672C152.773 17.7587 152.836 17.7174 152.858 17.6349L154.125 13.8183C154.151 13.7389 154.21 13.7008 154.301 13.7008H162.196C162.288 13.7008 162.346 13.7389 162.372 13.8151L163.645 17.638C163.671 17.7174 163.733 17.7587 163.828 17.7587H165.551C165.649 17.7587 165.682 17.7079 165.659 17.6063ZM161.72 12.2085H154.807C154.715 12.2085 154.683 12.164 154.706 12.0751L158.11 1.83207C158.136 1.77809 158.182 1.74951 158.247 1.74951C158.312 1.74951 158.358 1.77809 158.384 1.83524L161.798 12.0815C161.821 12.164 161.795 12.2085 161.72 12.2085Z" fill="#3B0C3E"/>
<path d="M36.6594 0H31.6004C31.0913 0 30.742 0.495325 30.9216 0.955724L32.5926 5.25172C32.8048 5.8804 33.4119 6.33763 34.1299 6.33763C34.8218 6.33763 35.4126 5.91533 35.6443 5.3184L37.3415 0.955724C37.5178 0.495325 37.1653 0 36.6594 0Z" fill="#3B0C3E"/>
<path d="M30.7192 18C30.7192 18 32.4425 18 31.8485 16.3235L26.659 1.67649C26.659 1.67649 26.065 0 24.3384 0H22.2691C22.2691 0 20.5458 0 21.1398 1.67649L26.3293 16.3235C26.3293 16.3235 26.9234 18 28.6499 18H30.7192Z" fill="#3B0C3E"/>
</svg>
