<svg width="691" height="802" viewBox="0 0 691 802" fill="none" xmlns="http://www.w3.org/2000/svg">
<path d="M648.271 692.608C675.997 634.678 729.642 594.561 791.703 585.268C947.939 561.879 1010.31 364.082 897.289 250.547C852.421 205.473 831.923 140.522 842.508 76.8613C869.201 -83.4516 705.891 -205.713 566.125 -130.022C510.622 -99.9735 444.327 -99.9735 388.875 -130.022C249.16 -205.713 85.8504 -83.4516 112.492 76.8613C123.077 140.522 102.579 205.473 57.7113 250.547C-55.3097 364.082 7.06097 561.879 163.297 585.268C225.358 594.561 278.952 634.678 306.729 692.608C376.535 838.464 578.413 838.464 648.271 692.608Z" fill="#8FD8CF"/>
</svg>
